<svg width="16" height="16" viewBox="0 0 16 16" fill="none" xmlns="http://www.w3.org/2000/svg">
    <path d="M15.8422 6.57462C15.7988 6.54016 15.3937 6.23429 14.5394 6.23429C14.3138 6.23527 14.0887 6.25462 13.8663 6.29215C13.7009 5.15884 12.764 4.6063 12.722 4.58151L12.4926 4.44922L12.3417 4.66694C12.1527 4.9594 12.0148 5.2818 11.9338 5.62043C11.7809 6.26736 11.8739 6.87499 12.2025 7.39446C11.8057 7.6156 11.1691 7.67004 11.0403 7.67485H0.500842C0.225555 7.67523 0.0021724 7.8977 0.000672135 8.17296C-0.0116211 9.09627 0.144809 10.0141 0.462261 10.8812C0.825325 11.8333 1.36546 12.5347 2.06819 12.9639C2.85565 13.4461 4.13502 13.7217 5.58524 13.7217C6.24038 13.7238 6.8943 13.6645 7.5384 13.5446C8.43377 13.3802 9.29534 13.0673 10.0875 12.6187C10.7402 12.2407 11.3276 11.7599 11.8271 11.1947C12.6621 10.2494 13.1595 9.1967 13.5294 8.26114H13.6769C14.5911 8.26114 15.1533 7.8953 15.4633 7.58873C15.6693 7.39321 15.8302 7.15502 15.9345 6.89084L16 6.69932L15.8422 6.57462Z" fill="#2496ED"/>
    <path d="M1.47781 7.3657H2.89014C2.95825 7.3657 3.01345 7.31048 3.01345 7.24239V5.98436C3.01383 5.91624 2.95892 5.86073 2.89083 5.86035C2.89061 5.86035 2.89036 5.86035 2.89014 5.86035H1.47781C1.40969 5.86035 1.35449 5.91557 1.35449 5.98366V5.98436V7.24236C1.35449 7.31048 1.40969 7.3657 1.47781 7.3657Z" fill="#2496ED"/>
    <path d="M3.42383 7.3657H4.83616C4.90428 7.3657 4.95948 7.31048 4.95948 7.24239V5.98436C4.95986 5.91624 4.90495 5.86073 4.83684 5.86035C4.83661 5.86035 4.83637 5.86035 4.83614 5.86035H3.42381C3.35531 5.86035 3.2998 5.91586 3.2998 5.98436V7.24236C3.30021 7.31059 3.35561 7.3657 3.42383 7.3657Z" fill="#2496ED"/>
    <path d="M5.3997 7.3657H6.81203C6.88015 7.3657 6.93535 7.31048 6.93535 7.24239V5.98436C6.93573 5.91624 6.88082 5.86073 6.8127 5.86035C6.81248 5.86035 6.81223 5.86035 6.81201 5.86035H5.39968C5.33156 5.86035 5.27637 5.91557 5.27637 5.98366V5.98436V7.24236C5.27639 7.31048 5.33161 7.3657 5.3997 7.3657Z" fill="#2496ED"/>
    <path d="M7.35183 7.3657H8.76416C8.83239 7.3657 8.88779 7.31061 8.88817 7.24239V5.98436C8.88817 5.91586 8.83266 5.86035 8.76416 5.86035H7.35183C7.28371 5.86035 7.22852 5.91557 7.22852 5.98366V5.98436V7.24236C7.22852 7.31048 7.28373 7.3657 7.35183 7.3657Z" fill="#2496ED"/>
    <path d="M3.42381 5.55611H4.83614C4.90435 5.55572 4.95945 5.5003 4.95945 5.4321V4.17409C4.95945 4.10598 4.90424 4.05078 4.83614 4.05078H3.42381C3.35561 4.05078 3.30019 4.10587 3.2998 4.17409V5.4321C3.30019 5.50044 3.35547 5.55572 3.42381 5.55611Z" fill="#2496ED"/>
    <path d="M5.39968 5.55611H6.81201C6.88022 5.55572 6.93532 5.5003 6.93532 5.4321V4.17409C6.93532 4.10598 6.8801 4.05078 6.81201 4.05078H5.39968C5.33156 4.05078 5.27637 4.106 5.27637 4.17409V5.4321C5.27637 5.5003 5.33147 5.55572 5.39968 5.55611Z" fill="#2496ED"/>
    <path d="M7.35183 5.55611H8.76416C8.8325 5.55572 8.88779 5.50044 8.88817 5.4321V4.17409C8.88779 4.10587 8.83239 4.05078 8.76416 4.05078H7.35183C7.28371 4.05078 7.22852 4.106 7.22852 4.17409V5.4321C7.22852 5.5003 7.28362 5.55572 7.35183 5.55611Z" fill="#2496ED"/>
    <path d="M7.35183 3.74558H8.76416C8.83239 3.74558 8.88779 3.69047 8.88817 3.62227V2.36355C8.88779 2.29532 8.83239 2.24023 8.76416 2.24023H7.35183C7.28371 2.24023 7.22852 2.29543 7.22852 2.36355V3.62225C7.22852 3.69036 7.28373 3.74558 7.35183 3.74558Z" fill="#2496ED"/>
    <path d="M9.32253 7.3657H10.7349C10.8031 7.3657 10.8585 7.31061 10.8589 7.24239V5.98436C10.8589 5.91586 10.8034 5.86035 10.7349 5.86035H9.32253C9.25444 5.86035 9.19922 5.91557 9.19922 5.98366V5.98436V7.24236C9.19922 7.31048 9.25444 7.3657 9.32253 7.3657Z" fill="#2496ED"/>
</svg>
