<svg width="28" height="28" viewBox="0 0 28 28" fill="none" xmlns="http://www.w3.org/2000/svg">
    <path fill-rule="evenodd" clip-rule="evenodd" d="M14.0113 0.514648C6.42136 0.514648 0.285645 6.69559 0.285645 14.3423C0.285645 20.4547 4.21701 25.6287 9.67085 27.4599C10.3527 27.5976 10.6025 27.1624 10.6025 26.7963C10.6025 26.4757 10.58 25.3769 10.58 24.2321C6.76187 25.0564 5.96678 22.5837 5.96678 22.5837C5.35318 20.9812 4.44402 20.5693 4.44402 20.5693C3.19434 19.7222 4.53505 19.7222 4.53505 19.7222C5.92126 19.8138 6.64865 21.1416 6.64865 21.1416C7.87557 23.2476 9.85262 22.6525 10.648 22.2862C10.7615 21.3933 11.1253 20.7752 11.5116 20.4319C8.46641 20.1113 5.26243 18.9209 5.26243 13.6095C5.26243 12.0986 5.80748 10.8624 6.67112 9.90098C6.53486 9.55765 6.05752 8.138 6.80767 6.23792C6.80767 6.23792 7.96659 5.87156 10.5797 7.65729C11.6985 7.35461 12.8523 7.20064 14.0113 7.19934C15.1702 7.19934 16.3516 7.35977 17.4425 7.65729C20.056 5.87156 21.2149 6.23792 21.2149 6.23792C21.965 8.138 21.4874 9.55765 21.3512 9.90098C22.2376 10.8624 22.7601 12.0986 22.7601 13.6095C22.7601 18.9209 19.5561 20.0883 16.4882 20.4319C16.9882 20.8668 17.4198 21.6908 17.4198 22.9959C17.4198 24.8502 17.3973 26.3384 17.3973 26.796C17.3973 27.1624 17.6474 27.5976 18.329 27.4602C23.7828 25.6284 27.7142 20.4547 27.7142 14.3423C27.7366 6.69559 21.5784 0.514648 14.0113 0.514648Z" fill="white"/>
</svg>
