<svg width="16" height="16" viewBox="0 0 16 16" fill="none" xmlns="http://www.w3.org/2000/svg">
    <path d="M1.20747 6.76995C1.17631 6.76995 1.16852 6.75437 1.1841 6.731L1.3477 6.52066C1.36328 6.49729 1.40223 6.48171 1.43339 6.48171H4.21447C4.24563 6.48171 4.25342 6.50508 4.23784 6.52845L4.10541 6.731C4.08983 6.75437 4.05088 6.77774 4.02751 6.77774L1.20747 6.76995ZM0.0311606 7.48664C0 7.48664 -0.00779015 7.47106 0.00779015 7.44769L0.171383 7.23736C0.186964 7.21399 0.225914 7.19841 0.257075 7.19841H3.80938C3.84054 7.19841 3.85612 7.22178 3.84833 7.24515L3.78601 7.43211C3.77822 7.46327 3.74706 7.47885 3.7159 7.47885L0.0311606 7.48664ZM1.91638 8.20334C1.88522 8.20334 1.87743 8.17996 1.89301 8.15659L2.00207 7.96184C2.01765 7.93847 2.04881 7.9151 2.07997 7.9151H3.638C3.66916 7.9151 3.68474 7.93847 3.68474 7.96963L3.66916 8.15659C3.66916 8.18776 3.638 8.21113 3.61463 8.21113L1.91638 8.20334ZM10.0025 6.62973C9.51177 6.75437 9.17679 6.84785 8.6938 6.97249C8.57695 7.00365 8.56916 7.01144 8.46789 6.89459C8.35104 6.76216 8.26535 6.67647 8.10175 6.59857C7.61097 6.35707 7.13577 6.42718 6.69174 6.71542C6.16201 7.05818 5.88935 7.56454 5.89714 8.19555C5.90493 8.81876 6.33339 9.33291 6.94881 9.4186C7.47854 9.48871 7.92258 9.30175 8.27314 8.90445C8.34325 8.81876 8.40557 8.72528 8.48347 8.61621H6.97997C6.81638 8.61621 6.77743 8.51494 6.83196 8.38251C6.93323 8.14101 7.12019 7.73593 7.22926 7.53338C7.25263 7.48664 7.30716 7.40874 7.42401 7.40874H10.2596C10.244 7.61907 10.244 7.82941 10.2129 8.03974C10.1272 8.60063 9.91686 9.11478 9.57409 9.56661C9.0132 10.3067 8.28093 10.7663 7.3539 10.8909C6.59046 10.9922 5.88156 10.8442 5.25835 10.3768C4.68188 9.94054 4.35469 9.36407 4.269 8.64737C4.16773 7.79825 4.41701 7.03481 4.93116 6.36486C5.48426 5.64038 6.21654 5.18076 7.1124 5.01717C7.84468 4.88473 8.54579 4.97043 9.17679 5.39888C9.58967 5.67154 9.8857 6.04547 10.0804 6.49729C10.1272 6.5674 10.096 6.60636 10.0025 6.62973Z" fill="#00ACD7"/>
    <path d="M12.5812 10.9378C11.8723 10.9222 11.2257 10.7197 10.6804 10.2523C10.2208 9.85498 9.93252 9.34862 9.83904 8.74877C9.69881 7.86849 9.94031 7.08947 10.47 6.39615C11.0387 5.6483 11.7242 5.25879 12.6513 5.0952C13.4459 4.95498 14.1937 5.03288 14.8715 5.4925C15.4869 5.91316 15.8686 6.48184 15.9699 7.2297C16.1023 8.28137 15.7985 9.13828 15.074 9.87056C14.5599 10.3925 13.9289 10.7197 13.2044 10.8677C12.994 10.9066 12.7837 10.9144 12.5812 10.9378ZM14.4352 7.79059C14.4274 7.68932 14.4274 7.61141 14.4118 7.53351C14.2716 6.76229 13.5627 6.32604 12.8227 6.49742C12.0982 6.66102 11.6308 7.12063 11.4594 7.85291C11.3192 8.46054 11.6152 9.07596 12.1761 9.32525C12.6045 9.51221 13.033 9.48884 13.4459 9.2785C14.0613 8.95911 14.3963 8.46054 14.4352 7.79059Z" fill="#00ACD7"/>
</svg>