<svg width="28" height="28" viewBox="0 0 28 28" fill="none" xmlns="http://www.w3.org/2000/svg">
    <path d="M14.0082 2.75773C17.6725 2.75773 18.1064 2.7738 19.5475 2.83809C20.8868 2.89701 21.61 3.12201 22.0922 3.30951C22.7297 3.55594 23.1904 3.85594 23.6672 4.33273C24.1493 4.81487 24.4439 5.27023 24.6904 5.90773C24.8779 6.38987 25.1029 7.11844 25.1618 8.45237C25.2261 9.8988 25.2422 10.3327 25.2422 13.9917C25.2422 17.6559 25.2261 18.0899 25.1618 19.5309C25.1029 20.8702 24.8779 21.5934 24.6904 22.0756C24.4439 22.7131 24.1439 23.1738 23.6672 23.6506C23.185 24.1327 22.7297 24.4274 22.0922 24.6738C21.61 24.8613 20.8814 25.0863 19.5475 25.1452C18.1011 25.2095 17.6672 25.2256 14.0082 25.2256C10.3439 25.2256 9.91002 25.2095 8.46895 25.1452C7.12966 25.0863 6.40645 24.8613 5.9243 24.6738C5.2868 24.4274 4.82609 24.1274 4.3493 23.6506C3.86716 23.1684 3.57252 22.7131 3.32609 22.0756C3.13859 21.5934 2.91359 20.8649 2.85466 19.5309C2.79037 18.0845 2.7743 17.6506 2.7743 13.9917C2.7743 10.3274 2.79037 9.89344 2.85466 8.45237C2.91359 7.11309 3.13859 6.38987 3.32609 5.90773C3.57252 5.27023 3.87252 4.80951 4.3493 4.33273C4.83145 3.85059 5.2868 3.55594 5.9243 3.30951C6.40645 3.12201 7.13502 2.89701 8.46895 2.83809C9.91002 2.7738 10.3439 2.75773 14.0082 2.75773ZM14.0082 0.288086C10.285 0.288086 9.81895 0.304157 8.35645 0.368443C6.8993 0.432729 5.89752 0.668443 5.02966 1.00594C4.1243 1.35951 3.35823 1.82559 2.59752 2.59166C1.83145 3.35237 1.36537 4.11844 1.0118 5.01844C0.674302 5.89166 0.438588 6.88809 0.374302 8.34523C0.310017 9.81309 0.293945 10.2792 0.293945 14.0024C0.293945 17.7256 0.310017 18.1917 0.374302 19.6542C0.438588 21.1113 0.674302 22.1131 1.0118 22.9809C1.36537 23.8863 1.83145 24.6524 2.59752 25.4131C3.35823 26.1738 4.1243 26.6452 5.0243 26.9934C5.89752 27.3309 6.89395 27.5667 8.35109 27.6309C9.81359 27.6952 10.2797 27.7113 14.0029 27.7113C17.7261 27.7113 18.1922 27.6952 19.6547 27.6309C21.1118 27.5667 22.1136 27.3309 22.9814 26.9934C23.8814 26.6452 24.6475 26.1738 25.4082 25.4131C26.1689 24.6524 26.6404 23.8863 26.9886 22.9863C27.3261 22.1131 27.5618 21.1167 27.6261 19.6595C27.6904 18.197 27.7064 17.7309 27.7064 14.0077C27.7064 10.2845 27.6904 9.81844 27.6261 8.35594C27.5618 6.8988 27.3261 5.89701 26.9886 5.02916C26.6511 4.11844 26.185 3.35237 25.4189 2.59166C24.6582 1.83094 23.8922 1.35951 22.9922 1.0113C22.1189 0.6738 21.1225 0.438086 19.6654 0.3738C18.1975 0.304157 17.7314 0.288086 14.0082 0.288086Z" fill="white"/>
    <path d="M14.0005 6.95605C10.1135 6.95605 6.95996 10.1108 6.95996 13.9993C6.95996 17.8878 10.1135 21.0426 14.0005 21.0426C17.8875 21.0426 21.041 17.8878 21.041 13.9993C21.041 10.1108 17.8875 6.95605 14.0005 6.95605ZM14.0005 18.5681C11.4787 18.5681 9.43351 16.522 9.43351 13.9993C9.43351 11.4766 11.4787 9.43057 14.0005 9.43057C16.5222 9.43057 18.5674 11.4766 18.5674 13.9993C18.5674 16.522 16.5222 18.5681 14.0005 18.5681Z" fill="white"/>
    <path d="M22.9631 6.67753C22.9631 7.58806 22.2243 8.32185 21.3195 8.32185C20.4093 8.32185 19.6758 7.58271 19.6758 6.67753C19.6758 5.76699 20.4146 5.0332 21.3195 5.0332C22.2243 5.0332 22.9631 5.77235 22.9631 6.67753Z" fill="white"/>
</svg>
