<svg width="19" height="18" viewBox="0 0 19 18" fill="none" xmlns="http://www.w3.org/2000/svg">
    <path d="M16.2553 6.16626C16.2579 5.64594 16.1156 5.13516 15.8444 4.69114C15.5731 4.24711 15.1836 3.88736 14.7195 3.65218C14.2553 3.417 13.7348 3.31568 13.2164 3.35956C12.6979 3.40344 12.2019 3.5908 11.7838 3.90064C11.3658 4.21048 11.0423 4.63057 10.8496 5.11387C10.6568 5.59717 10.6023 6.1246 10.6924 6.63708C10.7825 7.14956 11.0133 7.6269 11.3593 8.01552C11.7052 8.40422 12.1526 8.68889 12.6512 8.83769C12.4671 9.21182 12.1823 9.52728 11.8288 9.74842C11.4753 9.96964 11.0671 10.0879 10.6501 10.0899H8.40802C7.57801 10.0928 6.77878 10.4045 6.16595 10.9643V5.54857C6.84644 5.40966 7.45112 5.02303 7.86275 4.46363C8.2744 3.90423 8.46363 3.21192 8.39382 2.52091C8.32402 1.8299 8.00013 1.18942 7.48493 0.723654C6.96974 0.257884 6.29996 0 5.60543 0C4.9109 0 4.24112 0.257884 3.72592 0.723654C3.21073 1.18942 2.88683 1.8299 2.81702 2.52091C2.74721 3.21192 2.93647 3.90423 3.34811 4.46363C3.75974 5.02303 4.36442 5.40966 5.04491 5.54857V12.3869C4.36569 12.5168 3.75749 12.8908 3.33501 13.4382C2.91254 13.9857 2.705 14.6689 2.75154 15.3588C2.79809 16.0488 3.09549 16.6979 3.58766 17.1836C4.07984 17.6694 4.73276 17.9583 5.42327 17.9958C6.11378 18.0333 6.79415 17.8168 7.33604 17.3873C7.87794 16.9577 8.2439 16.3446 8.3649 15.6638C8.4859 14.9828 8.35362 14.2813 7.99292 13.6913C7.63224 13.1012 7.06812 12.6636 6.40697 12.4609C6.59138 12.0871 6.87631 11.7722 7.22978 11.5514C7.58325 11.3306 7.99127 11.2127 8.40802 11.2109H10.6501C11.3496 11.2077 12.0307 10.9864 12.5985 10.5779C13.1664 10.1694 13.5927 9.59402 13.8182 8.93186C14.4901 8.84352 15.1073 8.51461 15.5554 8.00611C16.0035 7.4976 16.2522 6.844 16.2553 6.16626ZM3.92387 2.80314C3.92387 2.47056 4.02249 2.14545 4.20726 1.86892C4.39204 1.59239 4.65466 1.37686 4.96192 1.24959C5.26919 1.12232 5.6073 1.08902 5.93348 1.1539C6.25967 1.21878 6.5593 1.37893 6.79447 1.6141C7.02964 1.84927 7.18979 2.1489 7.25468 2.47509C7.31956 2.80128 7.28626 3.13939 7.15899 3.44665C7.03171 3.75391 6.81618 4.01654 6.53965 4.20131C6.26312 4.38608 5.93801 4.4847 5.60543 4.4847C5.15945 4.4847 4.73174 4.30754 4.41639 3.99218C4.10103 3.67684 3.92387 3.24912 3.92387 2.80314ZM7.28699 15.1346C7.28699 15.4671 7.18836 15.7922 7.00359 16.0688C6.81882 16.3453 6.5562 16.5608 6.24893 16.6881C5.94166 16.8154 5.60356 16.8487 5.27737 16.7838C4.95118 16.719 4.65156 16.5588 4.41639 16.3236C4.18122 16.0884 4.02106 15.7888 3.95618 15.4627C3.8913 15.1364 3.9246 14.7983 4.05187 14.4911C4.17915 14.1838 4.39468 13.9212 4.67121 13.7364C4.94774 13.5517 5.27285 13.453 5.60543 13.453C6.05141 13.453 6.47911 13.6302 6.79447 13.9455C7.10982 14.2609 7.28699 14.6886 7.28699 15.1346ZM13.4527 7.84782C13.1201 7.84782 12.795 7.74916 12.5185 7.56442C12.242 7.37965 12.0264 7.11703 11.8992 6.80976C11.7719 6.5025 11.7386 6.1644 11.8034 5.8382C11.8683 5.51201 12.0285 5.21239 12.2636 4.97722C12.4988 4.74205 12.7985 4.58189 13.1246 4.51701C13.4508 4.45213 13.7889 4.48543 14.0962 4.6127C14.4035 4.73998 14.6661 4.95551 14.8509 5.23204C15.0356 5.50857 15.1343 5.83368 15.1343 6.16626C15.1343 6.61224 14.9571 7.03995 14.6417 7.3553C14.3264 7.67062 13.8986 7.84782 13.4527 7.84782Z" fill="white"/>
</svg>
