<svg width="16" height="16" viewBox="0 0 16 16" fill="none" xmlns="http://www.w3.org/2000/svg">
    <path d="M15.7593 3.5976C15.765 3.6188 15.7679 3.64066 15.768 3.66262V7.07608C15.768 7.11989 15.7564 7.16293 15.7345 7.20084C15.7125 7.23875 15.6809 7.27019 15.6429 7.29199L12.7779 8.94148V12.2109C12.7779 12.2999 12.7307 12.382 12.6535 12.4268L6.6731 15.8695C6.65941 15.8773 6.64448 15.8823 6.62955 15.8876C6.62395 15.8894 6.61866 15.8928 6.61275 15.8944C6.57094 15.9054 6.527 15.9054 6.4852 15.8944C6.47835 15.8925 6.47213 15.8888 6.4656 15.8863C6.45191 15.8813 6.4376 15.877 6.42453 15.8695L0.445377 12.4268C0.407393 12.405 0.375833 12.3735 0.353876 12.3356C0.331919 12.2977 0.320343 12.2547 0.320312 12.2109V1.97051C0.320312 1.94811 0.323424 1.92633 0.329023 1.90518C0.33089 1.89802 0.335246 1.89149 0.337734 1.88433C0.342401 1.87127 0.346757 1.85789 0.353601 1.84576C0.358267 1.83767 0.365112 1.83113 0.370712 1.82367C0.377867 1.81371 0.3844 1.80345 0.3928 1.79473C0.399956 1.78758 0.409289 1.78229 0.417378 1.77607C0.4264 1.7686 0.434489 1.76051 0.444755 1.7546H0.445066L3.4348 0.0332484C3.47265 0.0114648 3.51556 0 3.55924 0C3.60292 0 3.64583 0.0114648 3.68368 0.0332484L6.67341 1.7546H6.67404C6.68399 1.76082 6.69239 1.7686 6.70141 1.77576C6.7095 1.78198 6.71853 1.78758 6.72568 1.79442C6.73439 1.80345 6.74061 1.81371 6.74808 1.82367C6.75337 1.83113 6.76052 1.83767 6.76488 1.84576C6.77204 1.8582 6.77608 1.87127 6.78106 1.88433C6.78355 1.89149 6.7879 1.89802 6.78977 1.90549C6.7955 1.92669 6.79843 1.94855 6.79848 1.97051V8.36655L9.28982 6.93204V3.66231C9.28982 3.64053 9.29293 3.61844 9.29853 3.5976C9.30071 3.59013 9.30475 3.5836 9.30724 3.57644C9.31222 3.56338 9.31657 3.55 9.32342 3.53786C9.32808 3.52978 9.33493 3.52324 9.34022 3.51578C9.34768 3.50582 9.35391 3.49555 9.36262 3.48684C9.36977 3.47969 9.3788 3.4744 9.38688 3.46818C9.39622 3.46071 9.40431 3.45262 9.41426 3.44671H9.41457L12.4046 1.72536C12.4425 1.70354 12.4854 1.69206 12.5291 1.69206C12.5727 1.69206 12.6157 1.70354 12.6535 1.72536L15.6432 3.44671C15.6538 3.45293 15.6619 3.46071 15.6712 3.46787C15.679 3.47409 15.688 3.47969 15.6952 3.48653C15.7039 3.49555 15.7101 3.50582 15.7176 3.51578C15.7232 3.52324 15.73 3.52978 15.7344 3.53786C15.7415 3.55 15.7456 3.56338 15.7506 3.57644C15.7534 3.5836 15.7574 3.59013 15.7593 3.5976ZM15.2696 6.93204V4.0935L14.2233 4.6958L12.7779 5.52801V8.36655L15.2699 6.93204H15.2696ZM12.2799 12.0669V9.22645L10.8581 10.0384L6.79817 12.3556V15.2227L12.2799 12.0669ZM0.818705 2.40139V12.0669L6.29978 15.2224V12.3559L3.43635 10.7353L3.43542 10.7347L3.43418 10.7341C3.42453 10.7285 3.41644 10.7204 3.40742 10.7135C3.39964 10.7073 3.39062 10.7023 3.38378 10.6955L3.38315 10.6946C3.37507 10.6868 3.36947 10.6771 3.36262 10.6684C3.3564 10.66 3.34893 10.6529 3.34395 10.6442L3.34364 10.6432C3.33804 10.6339 3.33462 10.6227 3.33058 10.6121C3.32653 10.6028 3.32124 10.5941 3.31876 10.5841V10.5838C3.31564 10.572 3.31502 10.5595 3.31378 10.5474C3.31253 10.5381 3.31004 10.5287 3.31004 10.5194V3.8359L1.86496 3.00338L0.818705 2.4017V2.40139ZM3.55955 0.536619L1.06852 1.97051L3.55893 3.4044L6.04965 1.9702L3.55893 0.536619H3.55955ZM4.855 9.48529L6.30009 8.65339V2.40139L5.25384 3.00369L3.80844 3.8359V10.0879L4.855 9.48529ZM12.5291 2.22873L10.0383 3.66262L12.5291 5.09651L15.0195 3.66231L12.5291 2.22873ZM12.2799 5.52801L10.8345 4.6958L9.78821 4.0935V6.93204L11.2333 7.76394L12.2799 8.36655V5.52801ZM6.54866 11.9247L10.202 9.83902L12.0282 8.79681L9.53933 7.36385L6.67373 9.01365L4.06199 10.5172L6.54866 11.9247Z" fill="#FF2D20"/>
</svg>