<svg width="28" height="28" viewBox="0 0 28 28" fill="none" xmlns="http://www.w3.org/2000/svg">
    <path d="M25.6839 0.286133H2.31064C1.191 0.286133 0.285645 1.17006 0.285645 2.26292V25.7326C0.285645 26.8254 1.191 27.7147 2.31064 27.7147H25.6839C26.8035 27.7147 27.7142 26.8254 27.7142 25.7379V2.26292C27.7142 1.17006 26.8035 0.286133 25.6839 0.286133ZM8.42314 23.6593H4.35172V10.5665H8.42314V23.6593ZM6.38743 8.78256C5.08029 8.78256 4.02493 7.7272 4.02493 6.42542C4.02493 5.12363 5.08029 4.06828 6.38743 4.06828C7.68922 4.06828 8.74457 5.12363 8.74457 6.42542C8.74457 7.72185 7.68922 8.78256 6.38743 8.78256ZM23.6589 23.6593H19.5928V17.2951C19.5928 15.779 19.566 13.8236 17.4767 13.8236C15.3606 13.8236 15.0392 15.479 15.0392 17.1879V23.6593H10.9785V10.5665H14.8785V12.3558H14.9321C15.4731 11.3272 16.8017 10.2397 18.7785 10.2397C22.8981 10.2397 23.6589 12.9504 23.6589 16.4754V23.6593Z" fill="white"/>
</svg>
