<svg width="16" height="16" viewBox="0 0 16 16" fill="none" xmlns="http://www.w3.org/2000/svg">
    <path d="M7.40436 0.170697C7.80109 -0.056386 8.31783 -0.0574117 8.71421 0.170697C10.7084 1.29751 12.7032 2.42256 14.697 3.55005C15.072 3.76129 15.3229 4.17865 15.3191 4.61076V11.3901C15.3219 11.8401 15.0462 12.2674 14.6506 12.4739C12.663 13.5945 10.6764 14.7165 8.68908 15.8371C8.28415 16.0686 7.75704 16.0508 7.36476 15.8003C6.76887 15.4548 6.17196 15.1111 5.57601 14.766C5.45424 14.6934 5.31696 14.6356 5.23097 14.5175C5.30699 14.4151 5.4429 14.4023 5.55334 14.3576C5.80207 14.2785 6.03052 14.1515 6.25903 14.0283C6.31681 13.9888 6.38736 14.0039 6.44275 14.0393C6.95231 14.3315 7.45736 14.6321 7.96863 14.9215C8.07769 14.9845 8.18813 14.9009 8.28136 14.8489C10.2318 13.7465 12.1847 12.6483 14.1348 11.5456C14.2071 11.5109 14.247 11.4342 14.2411 11.355C14.2425 9.11864 14.2415 6.88188 14.2418 4.64552C14.2501 4.55572 14.1981 4.47315 14.1169 4.43639C12.1362 3.32092 10.1565 2.20374 8.17611 1.08798C8.1418 1.06439 8.10115 1.05173 8.05951 1.05167C8.01787 1.05161 7.97719 1.06415 7.94281 1.08764C5.96243 2.20374 3.98307 3.32194 2.00268 4.43736C1.92177 4.47417 1.86746 4.55537 1.87709 4.64552C1.87743 6.88188 1.87709 9.11864 1.87709 11.3553C1.87366 11.394 1.88214 11.4327 1.90139 11.4664C1.92065 11.5 1.94976 11.527 1.98479 11.5436C2.51327 11.8432 3.04242 12.1408 3.57124 12.4395C3.86916 12.5998 4.23494 12.6951 4.56317 12.5722C4.85282 12.4684 5.05586 12.1728 5.05033 11.8652C5.05307 9.64193 5.04896 7.41828 5.05238 5.19531C5.04515 5.09661 5.13877 5.01507 5.23473 5.02436C5.48866 5.02265 5.74292 5.02094 5.99685 5.02504C6.10284 5.02265 6.17578 5.12892 6.16267 5.22836C6.16165 7.46575 6.16541 9.70319 6.16096 11.9406C6.16165 12.5369 5.91667 13.1857 5.36512 13.4774C4.68563 13.8294 3.84579 13.7548 3.17451 13.4173C2.59339 13.1272 2.03881 12.7849 1.468 12.4742C1.07133 12.2689 0.797061 11.8398 0.799854 11.3902V4.61076C0.795694 4.1697 1.05651 3.74477 1.44321 3.5366C3.43049 2.41509 5.41743 1.29272 7.40436 0.170697Z" fill="#8CC84B"/>
    <path d="M9.13818 4.86682C10.0049 4.81104 10.9328 4.83377 11.7127 5.26076C12.3166 5.58796 12.6514 6.27468 12.662 6.94556C12.6452 7.03606 12.5506 7.08597 12.4642 7.07976C12.2127 7.07942 11.9612 7.08318 11.7097 7.07805C11.603 7.08216 11.541 6.9838 11.5277 6.88949C11.4554 6.5685 11.2803 6.25058 10.9782 6.09575C10.5144 5.86354 9.97665 5.87522 9.47091 5.88007C9.10171 5.89967 8.7047 5.93164 8.39191 6.14875C8.15177 6.31321 8.07883 6.6452 8.16454 6.91257C8.24534 7.10455 8.46696 7.16649 8.64828 7.22359C9.69281 7.49678 10.7997 7.46959 11.8243 7.82911C12.2485 7.97567 12.6634 8.2606 12.8086 8.70473C12.9985 9.29999 12.9153 10.0115 12.4918 10.4894C12.1483 10.8826 11.6481 11.0967 11.1492 11.2129C10.4855 11.3609 9.79675 11.3647 9.12273 11.299C8.48895 11.2267 7.82941 11.0602 7.34014 10.6284C6.92176 10.2651 6.71742 9.69906 6.7377 9.15275C6.74255 9.06049 6.83441 8.99615 6.92279 9.00373C7.17603 9.00168 7.42927 9.001 7.68251 9.00407C7.78365 8.99684 7.85865 9.08425 7.86383 9.17959C7.91056 9.48542 8.0255 9.80642 8.29218 9.98774C8.80687 10.3198 9.45268 10.2971 10.042 10.3063C10.5303 10.2847 11.0783 10.2781 11.4768 9.95543C11.687 9.77137 11.7493 9.46343 11.6925 9.19851C11.6309 8.97484 11.3969 8.87062 11.196 8.80246C10.1649 8.47628 9.04563 8.59464 8.02447 8.22578C7.60991 8.07927 7.20902 7.80227 7.04975 7.37637C6.82751 6.77358 6.92934 6.028 7.39724 5.56625C7.85346 5.10696 8.51203 4.93008 9.13818 4.86677V4.86682Z" fill="#8CC84B"/>
</svg>