<svg width="18" height="18" viewBox="0 0 18 18" fill="none" xmlns="http://www.w3.org/2000/svg">
    <g clipPath="url(#clip0_59_96)">
        <path fillRule="evenodd" clipRule="evenodd" d="M10.125 1.125L11.25 0H16.875L18 1.125V6.75L16.875 7.875H11.25L10.125 6.75V1.125ZM11.25 1.125V6.75H16.875V1.125H11.25ZM0 11.25V4.5L1.125 3.375H6.75L7.875 4.5V10.125H13.5L14.625 11.25V16.875L13.5 18H7.875H6.75H1.125L0 16.875V11.25ZM6.75 10.125V4.5H1.125V10.125H6.75ZM6.75 11.25H1.125V16.875H6.75V11.25ZM7.875 16.875H13.5V11.25H7.875V16.875Z" fill="white"/>
    </g>
    <defs>
        <clipPath id="clip0_59_96">
            <rect width="18" height="18" fill="white"/>
        </clipPath>
    </defs>
</svg>
