<svg width="28" height="28" viewBox="0 0 28 28" fill="none" xmlns="http://www.w3.org/2000/svg">
    <path fill-rule="evenodd" clip-rule="evenodd" d="M27.7198 14.0003C27.7198 21.5776 21.5771 27.7203 13.9998 27.7203C6.42244 27.7203 0.279785 21.5776 0.279785 14.0003C0.279785 6.42293 6.42244 0.280273 13.9998 0.280273C21.5771 0.280273 27.7198 6.42293 27.7198 14.0003ZM14.4914 10.409C13.157 10.964 10.4899 12.1129 6.49025 13.8554C5.84077 14.1137 5.50054 14.3664 5.46957 14.6134C5.41722 15.031 5.9401 15.1954 6.65212 15.4193C6.74897 15.4497 6.84933 15.4813 6.95221 15.5147C7.65273 15.7425 8.59505 16.0089 9.08492 16.0194C9.52929 16.029 10.0252 15.8458 10.5728 15.4698C14.3098 12.9473 16.2389 11.6722 16.36 11.6447C16.4454 11.6253 16.5638 11.601 16.644 11.6723C16.7243 11.7436 16.7164 11.8786 16.7079 11.9148C16.6561 12.1357 14.6036 14.0438 13.5414 15.0313C13.2103 15.3391 12.9754 15.5575 12.9274 15.6074C12.8199 15.7191 12.7103 15.8248 12.6049 15.9263C11.9541 16.5537 11.4661 17.0242 12.6319 17.7925C13.1922 18.1617 13.6405 18.467 14.0878 18.7716C14.5762 19.1042 15.0634 19.436 15.6938 19.8492C15.8544 19.9545 16.0077 20.0638 16.1571 20.1703C16.7256 20.5756 17.2363 20.9396 17.8672 20.8816C18.2338 20.8478 18.6125 20.5031 18.8048 19.475C19.2594 17.0451 20.1528 11.7804 20.3593 9.61099C20.3773 9.42091 20.3546 9.17766 20.3363 9.07088C20.318 8.96409 20.2798 8.81195 20.141 8.69932C19.9767 8.56594 19.7229 8.53781 19.6094 8.53981C19.0934 8.5489 18.3016 8.82419 14.4914 10.409Z" fill="white"/>
</svg>
